{
	"asset":{
		"generator":"Khronos glTF Blender I/O v3.6.27",
		"version":"2.0"
	},
	"scene":0,
	"scenes":[
		{
			"name":"Scene",
			"nodes":[
				0
			]
		}
	],
	"nodes":[
		{
			"mesh":0,
			"name":"LOD3spShape",
			"scale":[
				1.0,
				1.0,
				1.0
			]
		}
	],
	"materials":[
		{
			"name":"blinn3-fx",
			"pbrMetallicRoughness":{
				"baseColorTexture":{
					"index":0
				},
				"metallicFactor":0
			}
		}
	],
	"meshes":[
		{
			"name":"LOD3spShape",
			"primitives":[
				{
					"attributes":{
						"POSITION":0,
						"NORMAL":1,
						"TEXCOORD_0":2,
						"TANGENT":3
					},
					"indices":4,
					"material":0
				}
			]
		}
	],
	"textures":[
		{
			"sampler":0,
			"source":0
		}
	],
	"images":[
		{
			"bufferView":5,
			"mimeType":"image/png",
			"name":"DuckCM"
		}
	],
	"accessors":[
		{
			"bufferView":0,
			"componentType":5126,
			"count":2662,
			"max":[
				96.17990112304688,
				163.97000122070312,
				53.92519760131836
			],
			"min":[
				-69.29850006103516,
				9.929369926452637,
				-61.32819747924805
			],
			"type":"VEC3"
		},
		{
			"bufferView":1,
			"componentType":5126,
			"count":2662,
			"type":"VEC3"
		},
		{
			"bufferView":2,
			"componentType":5126,
			"count":2662,
			"type":"VEC2"
		},
		{
			"bufferView":3,
			"componentType":5126,
			"count":2662,
			"type":"VEC4"
		},
		{
			"bufferView":4,
			"componentType":5123,
			"count":12636,
			"type":"SCALAR"
		}
	],
	"bufferViews":[
		{
			"buffer":0,
			"byteLength":31944,
			"byteOffset":0,
			"target":34962
		},
		{
			"buffer":0,
			"byteLength":31944,
			"byteOffset":31944,
			"target":34962
		},
		{
			"buffer":0,
			"byteLength":21296,
			"byteOffset":63888,
			"target":34962
		},
		{
			"buffer":0,
			"byteLength":42592,
			"byteOffset":85184,
			"target":34962
		},
		{
			"buffer":0,
			"byteLength":25272,
			"byteOffset":127776,
			"target":34963
		},
		{
			"buffer":0,
			"byteLength":16302,
			"byteOffset":153048
		}
	],
	"samplers":[
		{
			"magFilter":9729,
			"minFilter":9987
		}
	],
	"buffers":[
		{
			"byteLength":169352,
			"uri":"data:application/octet-stream;base64,"
		}
	]
}
