{
	"asset":{
		"generator":"Khronos glTF Blender I/O v3.5.30",
		"version":"2.0"
	},
	"scene":0,
	"scenes":[
		{
			"name":"Scene",
			"nodes":[
				0
			]
		}
	],
	"nodes":[
		{
			"mesh":0,
			"name":"Dog_Coat_0.001"
		}
	],
	"materials":[
		{
			"doubleSided":true,
			"name":"Material.001",
			"pbrMetallicRoughness":{
				"baseColorFactor":[
					0.8000000715255737,
					0.12772208452224731,
					0.038792114704847336,
					1
				],
				"metallicFactor":0,
				"roughnessFactor":0.5
			}
		}
	],
	"meshes":[
		{
			"name":"Dog_Coat_0.002",
			"primitives":[
				{
					"attributes":{
						"POSITION":0,
						"TEXCOORD_0":1,
						"TEXCOORD_1":2,
						"NORMAL":3
					},
					"indices":4,
					"material":0
				}
			]
		}
	],
	"accessors":[
		{
			"bufferView":0,
			"componentType":5126,
			"count":5699,
			"max":[
				0.8753700256347656,
				2.5350072383880615,
				3.188861846923828
			],
			"min":[
				-0.8753701448440552,
				-1.915476679801941,
				-3.9742047786712646
			],
			"type":"VEC3"
		},
		{
			"bufferView":1,
			"componentType":5126,
			"count":5699,
			"type":"VEC2"
		},
		{
			"bufferView":2,
			"componentType":5126,
			"count":5699,
			"type":"VEC2"
		},
		{
			"bufferView":3,
			"componentType":5126,
			"count":5699,
			"type":"VEC3"
		},
		{
			"bufferView":4,
			"componentType":5123,
			"count":5703,
			"type":"SCALAR"
		}
	],
	"bufferViews":[
		{
			"buffer":0,
			"byteLength":68388,
			"byteOffset":0,
			"target":34962
		},
		{
			"buffer":0,
			"byteLength":45592,
			"byteOffset":68388,
			"target":34962
		},
		{
			"buffer":0,
			"byteLength":45592,
			"byteOffset":113980,
			"target":34962
		},
		{
			"buffer":0,
			"byteLength":68388,
			"byteOffset":159572,
			"target":34962
		},
		{
			"buffer":0,
			"byteLength":11406,
			"byteOffset":227960,
			"target":34963
		}
	],
	"buffers":[
		{
			"byteLength":239368,
			"uri":"data:application/octet-stream;base64,"
		}
	]
}
