{
	"asset":{
		"generator":"Khronos glTF Blender I/O v3.6.27",
		"version":"2.0"
	},
	"extensionsUsed":[
		"KHR_materials_specular",
		"KHR_materials_ior"
	],
	"scene":0,
	"scenes":[
		{
			"name":"Scene",
			"nodes":[
				0
			]
		}
	],
	"nodes":[
		{
			"mesh":0,
			"name":"defaultobject"
		}
	],
	"materials":[
		{
			"doubleSided":true,
			"extensions":{
				"KHR_materials_specular":{
					"specularColorFactor":[
						2.371357614441398,
						2.371357614441398,
						2.371357614441398
					]
				},
				"KHR_materials_ior":{
					"ior":1.4500000476837158
				}
			},
			"name":"DefaultMaterial",
			"pbrMetallicRoughness":{
				"baseColorFactor":[
					0.5,
					0.5,
					0.5,
					1
				],
				"metallicFactor":0,
				"roughnessFactor":0.5527864098548889
			}
		}
	],
	"meshes":[
		{
			"name":"Mesh",
			"primitives":[
				{
					"attributes":{
						"POSITION":0,
						"NORMAL":1,
						"TEXCOORD_0":2,
						"TANGENT":3
					},
					"indices":4,
					"material":0
				}
			]
		}
	],
	"accessors":[
		{
			"bufferView":0,
			"componentType":5126,
			"count":35442,
			"max":[
				0.6198524236679077,
				1.5629273653030396,
				0.597404956817627
			],
			"min":[
				-0.9620493650436401,
				-0.005101978778839111,
				-0.6286357045173645
			],
			"type":"VEC3"
		},
		{
			"bufferView":1,
			"componentType":5126,
			"count":35442,
			"type":"VEC3"
		},
		{
			"bufferView":2,
			"componentType":5126,
			"count":35442,
			"type":"VEC2"
		},
		{
			"bufferView":3,
			"componentType":5126,
			"count":35442,
			"type":"VEC4"
		},
		{
			"bufferView":4,
			"componentType":5123,
			"count":208890,
			"type":"SCALAR"
		}
	],
	"bufferViews":[
		{
			"buffer":0,
			"byteLength":425304,
			"byteOffset":0,
			"target":34962
		},
		{
			"buffer":0,
			"byteLength":425304,
			"byteOffset":425304,
			"target":34962
		},
		{
			"buffer":0,
			"byteLength":283536,
			"byteOffset":850608,
			"target":34962
		},
		{
			"buffer":0,
			"byteLength":567072,
			"byteOffset":1134144,
			"target":34962
		},
		{
			"buffer":0,
			"byteLength":417780,
			"byteOffset":1701216,
			"target":34963
		}
	],
	"buffers":[
		{
			"byteLength":2118996,
			"uri":"data:application/octet-stream;base64,"
		}
	]
}
